<svg display="none" xmlns="http://www.w3.org/2000/svg" >
<symbol id="remove" viewBox="0 0 24 24" fill="none">
	<path d="M10 12V17" stroke="#000000" stroke-width="2" stroke-linecap="round" stroke-linejoin="round"/>
	<path d="M14 12V17" stroke="#000000" stroke-width="2" stroke-linecap="round" stroke-linejoin="round"/>
	<path d="M4 7H20" stroke="#000000" stroke-width="2" stroke-linecap="round" stroke-linejoin="round"/>
	<path d="M6 10V18C6 19.6569 7.34315 21 9 21H15C16.6569 21 18 19.6569 18 18V10" stroke="#000000" stroke-width="2" stroke-linecap="round" stroke-linejoin="round"/>
	<path d="M9 5C9 3.89543 9.89543 3 11 3H13C14.1046 3 15 3.89543 15 5V7H9V5Z" stroke="#000000" stroke-width="2" stroke-linecap="round" stroke-linejoin="round"/>
</symbol>

<symbol id="like" viewBox="0 0 24 24">
	<path fill-rule="evenodd" clip-rule="evenodd" d="M15.9 4.5C15.9 3 14.418 2 13.26 2c-.806 0-.869.612-.993 1.82-.055.53-.121 1.174-.267 1.93-.386 2.002-1.72 4.56-2.996 5.325V17C9 19.25 9.75 20 13 20h3.773c2.176 0 2.703-1.433 2.899-1.964l.013-.036c.114-.306.358-.547.638-.82.31-.306.664-.653.927-1.18.311-.623.27-1.177.233-1.67-.023-.299-.044-.575.017-.83.064-.27.146-.475.225-.671.143-.356.275-.686.275-1.329 0-1.5-.748-2.498-2.315-2.498H15.5S15.9 6 15.9 4.5zM5.5 10A1.5 1.5 0 0 0 4 11.5v7a1.5 1.5 0 0 0 3 0v-7A1.5 1.5 0 0 0 5.5 10z" />
</symbol>

</svg>